<?xml version="1.0" encoding="UTF-8"?><svg id="Camada_1" xmlns="http://www.w3.org/2000/svg" xmlns:xlink="http://www.w3.org/1999/xlink" viewBox="0 0 148.23 176"><defs><filter id="drop-shadow-1" x="4.11" y="0" width="144" height="176" filterUnits="userSpaceOnUse"><feOffset dx="0" dy="0"/><feGaussianBlur result="blur" stdDeviation="16"/><feFlood flood-color="#000" flood-opacity=".25"/><feComposite in2="blur" operator="in"/><feComposite in="SourceGraphic"/></filter></defs><path d="M144.57,19.67c-2.25-2.25-5.37-3.65-8.8-3.65s-6.45,1.35-8.7,3.54l-29.12,29.12h0s-30.71,30.71-30.71,30.71h-.01S7.98,138.65,7.98,138.65l-.21.21c-2.19,2.25-3.54,5.31-3.54,8.7,0,3.01,1.07,5.77,2.84,7.92.51.62,1.07,1.18,1.68,1.69,0,0,.02.01.02.02,2.15,1.76,4.91,2.82,7.9,2.82,3.38,0,6.46-1.35,8.7-3.54.07-.07.14-.14.21-.21l28.94-28.94h0s30.06-30.05,30.06-30.05h0s.22-.23.22-.23l59.75-59.75c2.26-2.25,3.65-5.37,3.65-8.81s-1.4-6.56-3.65-8.81Z" fill="#f2b919"/><path d="M84.6,97.26l.22-.23c.07-.07.15-.15.22-.23,8.33-8.33,13.72-19.59,14.49-32.1.06-1.03.1-2.07.1-3.12,0-4.46-.59-8.78-1.69-12.89,0,0,0,0,0,0h0s-30.71,30.71-30.71,30.71c0,0,0,0-.01.01-8.8,8.9-13.57,20.3-14.29,31.89-.34,5.38.19,10.79,1.59,16.03l30.06-30.05s0,0,0,0Z" fill="#ffc819" filter="url(#drop-shadow-1)"/><path d="M137.89,132.03c-4.86-4.86-12.75-4.86-17.62,0-9.72,9.73-25.5,9.73-35.23,0-9.57-9.57-9.72-25-.45-34.76h0s0,0,0,0l.22-.23c.07-.07.15-.15.22-.23,8.33-8.33,13.72-19.59,14.49-32.1.06-1.03.1-2.07.1-3.12,0-4.46-.59-8.78-1.69-12.89,0,0,0,0,0,0-5.68-21.27-25.07-36.93-48.13-36.93C22.3,11.76,0,34.06,0,61.58c0,6.88,5.57,12.45,12.45,12.45s12.45-5.57,12.45-12.45c0-13.76,11.15-24.91,24.91-24.91s24.91,11.15,24.91,24.91c0,6.88-2.79,13.11-7.29,17.62-.07.07-.13.13-.19.2,0,0,0,0-.01.01-8.8,8.9-13.57,20.3-14.29,31.89-.34,5.38.19,10.79,1.59,16.03h0s0,0,0,0c2.18,8.18,6.49,15.91,12.9,22.32,19.45,19.45,51,19.45,70.45,0,4.86-4.87,4.86-12.75,0-17.62Z" fill="#ffc819"/></svg>